<svg xmlns="http://www.w3.org/2000/svg" viewBox="0 0 680 180" fill="none">
  <rect width="680" height="180" rx="16" fill="#0d1117"/>
  <defs><pattern id="g" width="40" height="40" patternUnits="userSpaceOnUse"><path d="M40 0L0 0 0 40" fill="none" stroke="#161b22" stroke-width="1"/></pattern></defs>
  <rect width="680" height="180" fill="url(#g)"/>
  <g transform="translate(30,50)">
    <rect width="80" height="80" rx="14" fill="#1a2332" stroke="#14f195" stroke-width="2"/>
    <text x="40" y="30" font-family="monospace" font-size="11" fill="#14f195" text-anchor="middle" font-weight="700">GMGN</text>
    <rect x="12" y="36" width="56" height="1" fill="#14f195" opacity="0.3"/>
    <rect x="14" y="42" width="52" height="7" rx="2" fill="#21262d"/>
    <rect x="16" y="43" width="34" height="5" rx="1.5" fill="#14f195" opacity="0.4"/>
    <path d="M20 62 L30 58 L40 64 L50 56 L60 62" stroke="#14f195" stroke-width="1.2" fill="none" opacity="0.5"/>
  </g>
  <text x="135" y="76" font-family="'Segoe UI',system-ui,sans-serif" font-size="42" fill="#e6edf3" font-weight="700" letter-spacing="-1">GMGN CA Query GUI</text>
  <text x="137" y="104" font-family="'Segoe UI',system-ui,sans-serif" font-size="14" fill="#7d8590">Solana Token &#x67E5;&#x8BE2; | WebSocket &#x5B9E;&#x65F6;&#x6570;&#x636E; | K&#x7EBF;&#x56FE;</text>
  <g transform="translate(137,116)">
    <rect width="66" height="22" rx="11" fill="#1a2332" stroke="#14f195" stroke-width="1"/>
    <text x="33" y="15" font-family="monospace" font-size="10" fill="#14f195" text-anchor="middle">Python</text>
    <rect x="76" width="92" height="22" rx="11" fill="#1a2332" stroke="#58a6ff" stroke-width="1"/>
    <text x="122" y="15" font-family="monospace" font-size="10" fill="#58a6ff" text-anchor="middle">CustomTkinter</text>
    <rect x="178" width="88" height="22" rx="11" fill="#1a2332" stroke="#f0883e" stroke-width="1"/>
    <text x="222" y="15" font-family="monospace" font-size="10" fill="#f0883e" text-anchor="middle">WebSocket</text>
  </g>
</svg>