<svg xmlns="http://www.w3.org/2000/svg" viewBox="0 0 680 200" fill="none">
  <rect width="680" height="200" rx="16" fill="#0d1117"/>
  <defs><pattern id="g" width="40" height="40" patternUnits="userSpaceOnUse"><path d="M40 0L0 0 0 40" fill="none" stroke="#161b22" stroke-width="1"/></pattern></defs>
  <rect width="680" height="200" fill="url(#g)"/>
  <g transform="translate(40,40)">
    <rect width="120" height="120" rx="16" fill="#1a2332" stroke="#14f195" stroke-width="2.5"/>
    <text x="60" y="48" font-family="monospace" font-size="14" fill="#14f195" text-anchor="middle" font-weight="700">GMGN</text>
    <rect x="20" y="58" width="80" height="1" fill="#14f195" opacity="0.3"/>
    <rect x="22" y="68" width="76" height="10" rx="3" fill="#21262d"/>
    <rect x="24" y="70" width="50" height="6" rx="2" fill="#14f195" opacity="0.4"/>
    <text x="60" y="95" font-family="monospace" font-size="9" fill="#7d8590" text-anchor="middle">CA: 0x7f2...</text>
    <path d="M35 105 L45 100 L55 108 L65 98 L75 105 L85 95" stroke="#14f195" stroke-width="1.5" fill="none" opacity="0.5"/>
  </g>
  <text x="195" y="72" font-family="'Segoe UI',system-ui,sans-serif" font-size="46" fill="#e6edf3" font-weight="700" letter-spacing="-1">GMGN CA</text>
  <text x="195" y="118" font-family="'Segoe UI',system-ui,sans-serif" font-size="46" fill="#14f195" font-weight="700" letter-spacing="-1">Query GUI</text>
  <text x="197" y="148" font-family="'Segoe UI',system-ui,sans-serif" font-size="14" fill="#7d8590">Solana Token &#x67E5;&#x8BE2; | WebSocket &#x5B9E;&#x65F6;&#x6570;&#x636E; | K&#x7EBF;&#x56FE;</text>
  <g transform="translate(197,162)">
    <rect width="66" height="22" rx="11" fill="#1a2332" stroke="#14f195" stroke-width="1"/>
    <text x="33" y="15" font-family="monospace" font-size="10" fill="#14f195" text-anchor="middle">Python</text>
    <rect x="76" width="92" height="22" rx="11" fill="#1a2332" stroke="#58a6ff" stroke-width="1"/>
    <text x="122" y="15" font-family="monospace" font-size="10" fill="#58a6ff" text-anchor="middle">CustomTkinter</text>
    <rect x="178" width="88" height="22" rx="11" fill="#1a2332" stroke="#f0883e" stroke-width="1"/>
    <text x="222" y="15" font-family="monospace" font-size="10" fill="#f0883e" text-anchor="middle">WebSocket</text>
  </g>
</svg>